<svg id="_022-contract" data-name="022-contract" xmlns="http://www.w3.org/2000/svg" viewBox="0 0 60 60">
  <defs>
    <style>
      .cls-1 {
        fill: #e6e6e6;
      }

      .cls-2 {
        fill: #00466d;
      }

      .cls-3 {
        fill: #fd7239;
      }

      .cls-4 {
        fill: #fde6a6;
      }

      .cls-5 {
        fill: #fcd56a;
        opacity: 0.3;
      }

      .cls-6 {
        fill: #b3b3b3;
      }

      .cls-7 {
        fill: gray;
      }

      .cls-8 {
        fill: #0081b9;
      }

      .cls-9 {
        fill: #bcbcbc;
      }
    </style>
  </defs>
  <path id="Path_331" data-name="Path 331" class="cls-1" d="M64.133,66.533h-27a3,3,0,0,1-3-3h0v-49h30v-3a3,3,0,0,1,3-3h0a3,3,0,0,1,3,3v52a3,3,0,0,0,3,3h-9Z" transform="translate(-30.133 -7.533)"/>
  <g id="Group_501" data-name="Group 501" transform="translate(1 1)">
    <path id="Path_332" data-name="Path 332" class="cls-2" d="M33.533,8.533h-22a3,3,0,0,0-3,3v3h33v-3a3,3,0,0,1,3-3Z" transform="translate(-8.533 -8.533)"/>
    <path id="Path_333" data-name="Path 333" class="cls-2" d="M341.333,435.2h6v5a3,3,0,0,1-3,3h0a3,3,0,0,1-3-3h0v-5Z" transform="translate(-302.333 -385.2)"/>
  </g>
  <path id="Path_334" data-name="Path 334" class="cls-3" d="M85.333,145.067v11l4-3,4,3v-11Z" transform="translate(-75.333 -128.067)"/>
  <path id="Path_340" data-name="Path 340" class="cls-4" d="M5,0A5,5,0,1,1,0,5,5,5,0,0,1,5,0Z" transform="translate(9 12)"/>
  <path id="Path_335" data-name="Path 335" class="cls-5" d="M84.8,111.757a5,5,0,0,1-5-5,4.938,4.938,0,0,1,.313-1.687,4.988,4.988,0,1,0,6.374,6.374A4.932,4.932,0,0,1,84.8,111.757Z" transform="translate(-67.796 -92.757)"/>
  <rect id="Rectangle_359" data-name="Rectangle 359" class="cls-6" width="6" height="38" transform="translate(49 1)"/>
  <rect id="Rectangle_360" data-name="Rectangle 360" class="cls-7" width="6" height="4" transform="translate(49 5)"/>
  <path id="Path_336" data-name="Path 336" class="cls-8" d="M411.6,332.8v2l-2,3,4,6,4-6-2-3v-2Z" transform="translate(-361.6 -293.8)"/>
  <g id="Group_502" data-name="Group 502" transform="translate(0 0)">
    <rect id="Rectangle_361" data-name="Rectangle 361" class="cls-2" width="2" height="2" transform="translate(13 16)"/>
    <path id="Path_337" data-name="Path 337" d="M69.269,110.809a1,1,0,0,0,1.6.8l3.4-2.55,3.4,2.55a1,1,0,0,0,1.6-.8v-7.69a6,6,0,1,0-10,0Zm5.6-3.8a1,1,0,0,0-1.2,0l-2.4,1.8V105a5.946,5.946,0,0,0,6,0v3.812Zm-.6-11.2a4,4,0,1,1-4,4A4,4,0,0,1,74.269,95.809Z" transform="translate(-60.269 -82.809)"/>
    <path id="Path_338" data-name="Path 338" d="M46,50H41V4a4,4,0,0,0-4-4H4A4,4,0,0,0,0,4V7A1,1,0,0,0,1,8H3V56a4,4,0,0,0,4,4H43a4,4,0,0,0,4-4V51A1,1,0,0,0,46,50ZM2,4A2,2,0,0,1,4,2H33.537A3.969,3.969,0,0,0,33,4V6H2ZM5,56V8H34a1,1,0,0,0,1-1V4a2,2,0,1,1,4,0V56a3.957,3.957,0,0,0,.556,2H7A2,2,0,0,1,5,56Zm40,0a2,2,0,0,1-4,0V52h4Z" transform="translate(0 0)"/>
    <rect id="Rectangle_362" data-name="Rectangle 362" class="cls-9" width="2" height="2" transform="translate(25 13)"/>
    <rect id="Rectangle_363" data-name="Rectangle 363" class="cls-9" width="7" height="2" transform="translate(29 13)"/>
    <rect id="Rectangle_364" data-name="Rectangle 364" class="cls-2" width="2" height="2" transform="translate(8 33)"/>
    <rect id="Rectangle_365" data-name="Rectangle 365" class="cls-2" width="24" height="2" transform="translate(12 33)"/>
    <rect id="Rectangle_366" data-name="Rectangle 366" class="cls-2" width="2" height="2" transform="translate(8 37)"/>
    <rect id="Rectangle_367" data-name="Rectangle 367" class="cls-2" width="24" height="2" transform="translate(12 37)"/>
    <rect id="Rectangle_368" data-name="Rectangle 368" class="cls-2" width="2" height="2" transform="translate(8 41)"/>
    <rect id="Rectangle_369" data-name="Rectangle 369" class="cls-2" width="24" height="2" transform="translate(12 41)"/>
    <rect id="Rectangle_370" data-name="Rectangle 370" class="cls-2" width="2" height="2" transform="translate(8 45)"/>
    <rect id="Rectangle_371" data-name="Rectangle 371" class="cls-2" width="24" height="2" transform="translate(12 45)"/>
    <rect id="Rectangle_372" data-name="Rectangle 372" class="cls-9" width="13" height="2" transform="translate(23 17)"/>
    <rect id="Rectangle_373" data-name="Rectangle 373" class="cls-9" width="13" height="2" transform="translate(23 21)"/>
    <rect id="Rectangle_374" data-name="Rectangle 374" class="cls-9" width="9" height="2" transform="translate(23 25)"/>
    <rect id="Rectangle_375" data-name="Rectangle 375" class="cls-2" width="8" height="2" transform="translate(8 53)"/>
    <rect id="Rectangle_376" data-name="Rectangle 376" class="cls-2" width="8" height="2" transform="translate(28 53)"/>
    <path id="Path_339" data-name="Path 339" d="M410.068,4V1a1,1,0,0,0-1-1h-6a1,1,0,0,0-1,1V39a1,1,0,0,0,1,1v.7l-1.832,2.748a1,1,0,0,0,0,1.11l4,6a1,1,0,0,0,1.387.277.987.987,0,0,0,.277-.277l4-6a1,1,0,0,0,0-1.11L409.068,40.7V40a1,1,0,0,0,1-1V6a2,2,0,0,1,2,2V21h2V8A4,4,0,0,0,410.068,4Zm-2-2V4h-4V2Zm-4,36V10h4V38h-4Zm3.168,3.555L408.868,44l-2.8,4.2-2.8-4.2,1.63-2.445a1,1,0,0,0,.17-.555V40h2v1A1.008,1.008,0,0,0,407.236,41.555ZM408.068,8h-4V6h4Z" transform="translate(-354.068 0)"/>
    <rect id="Rectangle_377" data-name="Rectangle 377" class="cls-2" width="2" height="2" transform="translate(51 43)"/>
  </g>
</svg>
