<svg xmlns="http://www.w3.org/2000/svg" viewBox="0 0 76.84 60">
  <defs>
    <style>
      .cls-1 {
        fill: #fd8e61;
      }

      .cls-2 {
        fill: #fd7239;
      }

      .cls-3 {
        fill: #fde6a6;
      }

      .cls-4 {
        fill: #fcd56a;
      }

      .cls-5 {
        fill: #0081b9;
      }

      .cls-6 {
        fill: #00466d;
      }

      .cls-7 {
        fill: #eaecee;
      }

      .cls-8 {
        fill: #fff;
      }
    </style>
  </defs>
  <g id="_037-time" data-name="037-time" transform="translate(0 -56.104)">
    <path id="Path_290" data-name="Path 290" class="cls-1" d="M188.675,346.187l-14.436-18.045L159.8,346.187Z" transform="translate(-135.82 -231.211)"/>
    <path id="Path_291" data-name="Path 291" class="cls-2" d="M168.946,339.872l7.339-9.174-2.045-2.556L159.8,346.187h28.872l-1.925-2.406H170.825A2.406,2.406,0,0,1,168.946,339.872Z" transform="translate(-135.82 -231.211)"/>
    <path id="Path_330" data-name="Path 330" class="cls-3" d="M12.932,0A12.932,12.932,0,1,1,0,12.932,12.932,12.932,0,0,1,12.932,0Z" transform="translate(1.728 57.231)"/>
    <circle id="Ellipse_11" data-name="Ellipse 11" class="cls-4" cx="9.925" cy="9.925" r="9.925" transform="translate(4.736 60.239)"/>
    <path id="Path_299" data-name="Path 299" class="cls-5" d="M13.233,0A13.233,13.233,0,1,1,0,13.233,13.233,13.233,0,0,1,13.233,0Z" transform="translate(49.247 75.276)"/>
    <path id="Path_292" data-name="Path 292" class="cls-6" d="M344.978,210.286a13.234,13.234,0,0,1-5.946-25.057,13.234,13.234,0,1,0,8.283,24.851A13.311,13.311,0,0,1,344.978,210.286Z" transform="translate(-278.889 -109.746)"/>
    <circle id="Ellipse_13" data-name="Ellipse 13" class="cls-7" cx="8.421" cy="8.421" r="8.421" transform="translate(54.059 80.088)"/>
    <circle id="Ellipse_14" data-name="Ellipse 14" class="cls-8" cx="6.015" cy="6.015" r="6.015" transform="translate(56.465 82.494)"/>
    <rect id="Rectangle_354" data-name="Rectangle 354" class="cls-5" width="4.812" height="4.812" transform="translate(60.074 70.464)"/>
    <path id="Path_293" data-name="Path 293" d="M76.118,254.246,1.532,225.524a1.128,1.128,0,1,0-.81,2.1l35.809,13.79L23.1,258.2a1.138,1.138,0,0,0,.881,1.832H52.856a1.138,1.138,0,0,0,.881-1.832L41.991,243.522l33.316,12.829a1.128,1.128,0,1,0,.811-2.1ZM26.33,257.78l12.09-15.112L50.509,257.78Z" transform="translate(0 -143.932)"/>
    <path id="Path_294" data-name="Path 294" d="M18.055,84.224A14.06,14.06,0,0,0,28.928,61.25a1.128,1.128,0,1,0-1.743,1.431,11.8,11.8,0,1,1-9.13-4.321,11.69,11.69,0,0,1,5.151,1.18,1.128,1.128,0,1,0,.986-2.029A13.928,13.928,0,0,0,18.055,56.1a14.06,14.06,0,0,0,0,28.12Z" transform="translate(-3.395)"/>
    <path id="Path_295" data-name="Path 295" d="M76.707,97.9a1.128,1.128,0,0,0,1.128-1.128v-.782a3.478,3.478,0,0,0-3.128-3.456V91.3a1.128,1.128,0,0,0-2.256,0v1.289a3.864,3.864,0,0,0,.737,7.658h.782a1.609,1.609,0,0,1,0,3.218H72.8a1.219,1.219,0,0,1-1.218-1.218,1.128,1.128,0,0,0-2.256,0,3.478,3.478,0,0,0,3.128,3.456v1.235a1.128,1.128,0,1,0,2.256,0v-1.289a3.864,3.864,0,0,0-.737-7.658h-.782a1.609,1.609,0,0,1,0-3.218h1.173a1.219,1.219,0,0,1,1.218,1.218v.782A1.128,1.128,0,0,0,76.707,97.9Z" transform="translate(-58.919 -28.955)"/>
    <path id="Path_296" data-name="Path 296" d="M334.981,177.813a14.361,14.361,0,0,0,3.534-28.281v-1.719h1.128a1.128,1.128,0,0,0,0-2.256h-1.128v-.15a1.128,1.128,0,0,0-1.128-1.128h-4.812a1.128,1.128,0,0,0-1.128,1.128v.15h-1.053a1.128,1.128,0,0,0,0,2.256h1.053v1.719a14.361,14.361,0,0,0,3.534,28.281ZM333.7,149.091v-2.556h2.556v2.556Zm1.278,2.256a12.105,12.105,0,1,1-12.105,12.105A12.119,12.119,0,0,1,334.981,151.347Z" transform="translate(-272.501 -74.942)"/>
    <path id="Path_297" data-name="Path 297" d="M362.233,227.5a9.549,9.549,0,1,0-9.549-9.549A9.56,9.56,0,0,0,362.233,227.5Zm0-16.842a7.293,7.293,0,1,1-7.293,7.293A7.3,7.3,0,0,1,362.233,210.661Z" transform="translate(-299.753 -129.444)"/>
    <path id="Path_298" data-name="Path 298" d="M388.688,254.019a1.138,1.138,0,0,0,1.423.141l3.609-2.406a1.128,1.128,0,0,0-1.251-1.877l-2.84,1.893-2.955-2.955a1.128,1.128,0,0,0-1.6,1.595Z" transform="translate(-327.006 -163.509)"/>
  </g>
</svg>
