<svg xmlns="http://www.w3.org/2000/svg" viewBox="0 0 419.728 113.52">
  <defs>
    <style>
      .cls-1 {
        fill: #2a4e73;
      }

      .cls-2 {
        fill: #3275b3;
        stroke: #3276b3;
        stroke-miterlimit: 10;
      }
    </style>
  </defs>
  <g id="logo_full" transform="translate(-2473 -1926)">
    <g id="graph" transform="translate(2473 1923.99)">
      <path id="Path_270" data-name="Path 270" class="cls-1" d="M194.23,301.57c.44,16.45,6.19,29.56,17.66,39.65l38.42-39.65Z" transform="translate(-194.23 -236.12)"/>
      <path id="Path_271" data-name="Path 271" class="cls-1" d="M263.55,296.16v-58h-.85a56.74,56.74,0,0,0-56.87,56.64c0,.52-.07,1.4-.06,1.4H261.2" transform="translate(-194.23 -236.12)"/>
      <path id="Path_272" data-name="Path 272" class="cls-1" d="M263.51,296.63l-38.14,40.82a56.57,56.57,0,0,0,37.48,14.19h.66" transform="translate(-194.23 -236.12)"/>
      <path id="Path_273" data-name="Path 273" class="cls-1" d="M323.28,294.89c0-31.13-23.53-56.4-54.79-56.76V351.65C299.74,351.29,323.28,326,323.28,294.89Z" transform="translate(-194.23 -236.12)"/>
    </g>
    <g id="typo" transform="translate(2473 1923.99)">
      <path id="Path_274" data-name="Path 274" class="cls-2" d="M380.3,310.38a25.331,25.331,0,0,0,5-4.77,26.319,26.319,0,0,0,5.35-10.28,29.629,29.629,0,0,0,.8-11.3,29.211,29.211,0,0,0-3.45-10.7,26.789,26.789,0,0,0-7.66-8.62,28.492,28.492,0,0,0-7.34-4,23.42,23.42,0,0,0-8.3-1.55H340.35v75.72h2.78V261.92h23a4.611,4.611,0,0,1,.75.11,4.447,4.447,0,0,0,.75.11,6.55,6.55,0,0,1,1.39.32,6.49,6.49,0,0,0,1.39.32,24.749,24.749,0,0,1,10.34,5.84,25.86,25.86,0,0,1,6.69,9.91,26.39,26.39,0,0,1,1.45,12.8,25,25,0,0,1-4.34,11,26,26,0,0,1-8.94,7.82,26.331,26.331,0,0,1-6.15,2.44,16.988,16.988,0,0,0,1.22,1.54l.81,1,15.1,19.81h3.21l-15.5-20.75V314a45.112,45.112,0,0,0,6-3.62Z" transform="translate(-194.23 -238.12)"/>
      <path id="Path_275" data-name="Path 275" class="cls-2" d="M402.9,334.86h-3.43l69.94-76.15H472v76.36h-2.36V263Z" transform="translate(-194.23 -238.12)"/>
      <path id="Path_276" data-name="Path 276" class="cls-2" d="M516.85,335.07a31.19,31.19,0,0,1-12.53-3.91,40.229,40.229,0,0,1-10.28-8.3,30,30,0,0,1-4.23-5.89,50.634,50.634,0,0,1-3.05-6.64,35.78,35.78,0,0,1-2.25-13,41,41,0,0,1,2.14-12.58,40.49,40.49,0,0,1,5.84-11.14,36.561,36.561,0,0,1,8.94-8.62,34.18,34.18,0,0,1,24.74-5.41,32.221,32.221,0,0,1,15.1,6.53A39.561,39.561,0,0,1,552,278.74a13.931,13.931,0,0,1,.75,1.5q.53,1.18.75,1.71a1.611,1.611,0,0,0,.21.64,1.66,1.66,0,0,1,.21.64,6.626,6.626,0,0,0-1.18.64,1.23,1.23,0,0,1-1.18.21,47.3,47.3,0,0,0-3.91-7.44,37.6,37.6,0,0,0-5.41-6.48,30.46,30.46,0,0,0-13.87-7.44,33.32,33.32,0,0,0-15.8.05,31,31,0,0,0-11.83,5.89,33.549,33.549,0,0,0-8.62,10.07,37.67,37.67,0,0,0-4.34,12.42,36.839,36.839,0,0,0,.11,12.53A37.64,37.64,0,0,0,492,315.2a33.7,33.7,0,0,0,18.21,15.53,32,32,0,0,0,13.07,1.77,26.45,26.45,0,0,0,9.32-2.14,33.671,33.671,0,0,0,8.3-5.09,35.179,35.179,0,0,0,6.59-7.23,34.4,34.4,0,0,0,4.28-8.57l2.36.86v.21a35.995,35.995,0,0,1-2.09,5,46.943,46.943,0,0,1-2.73,4.66,35.131,35.131,0,0,1-6.43,7A33.938,33.938,0,0,1,535,332a37.719,37.719,0,0,1-8.84,2.68A35.378,35.378,0,0,1,516.85,335.07Z" transform="translate(-194.23 -238.12)"/>
      <path id="Path_277" data-name="Path 277" class="cls-2" d="M613.45,258.71v2.36H568.68v29.45h44.66l.1,2.78H568.68v39h43.48v2.57H566.11V258.71Z" transform="translate(-194.23 -238.12)"/>
    </g>
  </g>
</svg>
