<svg xmlns="http://www.w3.org/2000/svg" viewBox="0 0 62.069 60">
  <defs>
    <style>
      .cls-1 {
        fill: #ccc;
      }

      .cls-2 {
        fill: #0081b9;
      }

      .cls-3 {
        fill: #999;
      }

      .cls-4 {
        fill: #fd7239;
      }

      .cls-5 {
        fill: #fcd56a;
      }

      .cls-6 {
        fill: #8a4f3f;
      }

      .cls-7 {
        fill: #00466d;
      }

      .cls-8 {
        fill: #f2c09a;
      }
    </style>
  </defs>
  <g id="_021-consulting" data-name="021-consulting" transform="translate(0 -8)">
    <path id="Path_316" data-name="Path 316" class="cls-1" d="M79.862,140.483V99.1a3.1,3.1,0,0,0-3.1-3.1H27.1A3.1,3.1,0,0,0,24,99.1v41.379Z" transform="translate(-20.897 -76.621)"/>
    <path id="Path_317" data-name="Path 317" class="cls-2" d="M56,128h47.586v31.034H56Z" transform="translate(-48.759 -104.483)"/>
    <path id="Path_318" data-name="Path 318" class="cls-3" d="M68,416v3.1a3.1,3.1,0,0,1-3.1,3.1H11.1A3.1,3.1,0,0,1,8,419.1H8V416H28.69l2.069,2.069H45.241L47.31,416Z" transform="translate(-6.966 -355.241)"/>
    <path id="Path_319" data-name="Path 319" class="cls-4" d="M110.207,56h-3.1a3.1,3.1,0,0,0-3.1,3.1V75.655a3.1,3.1,0,0,0,3.1,3.1h4.138l3.1,4.138,3.1-4.138h7.241a3.1,3.1,0,0,0,3.1-3.1h0V73.586Z" transform="translate(-90.552 -41.793)"/>
    <path id="Path_320" data-name="Path 320" class="cls-5" d="M179.931,38.759h-2.069l-3.1,4.138-3.1-4.138H155.1a3.1,3.1,0,0,1-3.1-3.1V19.1a3.1,3.1,0,0,1,3.1-3.1h24.828a3.1,3.1,0,0,1,3.1,3.1V35.655A3.1,3.1,0,0,1,179.931,38.759Z" transform="translate(-132.345 -6.966)"/>
    <circle id="Ellipse_19" data-name="Ellipse 19" class="cls-6" cx="3.103" cy="3.103" r="3.103" transform="translate(41.379 42.138)"/>
    <path id="Path_321" data-name="Path 321" class="cls-7" d="M316.138,320a4.138,4.138,0,0,1,4.138,4.138v2.069H312v-2.069A4.138,4.138,0,0,1,316.138,320Z" transform="translate(-271.655 -271.655)"/>
    <circle id="Ellipse_20" data-name="Ellipse 20" class="cls-8" cx="3.103" cy="3.103" r="3.103" transform="translate(14.483 42.138)"/>
    <path id="Path_322" data-name="Path 322" class="cls-7" d="M108.138,320a4.138,4.138,0,0,1,4.138,4.138v2.069H104v-2.069A4.138,4.138,0,0,1,108.138,320Z" transform="translate(-90.552 -271.655)"/>
    <path id="Path_323" data-name="Path 323" d="M232,392h2.069v2.069H232Z" transform="translate(-202 -334.345)"/>
    <path id="Path_324" data-name="Path 324" d="M61.034,59.724H60V22.483a4.138,4.138,0,0,0-4.138-4.138H51.724V12.138A4.138,4.138,0,0,0,47.586,8H22.759a4.138,4.138,0,0,0-4.138,4.138v1.034H16.552a4.138,4.138,0,0,0-4.138,4.138v1.034H6.207a4.138,4.138,0,0,0-4.138,4.138V59.724H1.034A1.035,1.035,0,0,0,0,60.759v3.1A4.138,4.138,0,0,0,4.138,68H57.931a4.138,4.138,0,0,0,4.138-4.138v-3.1A1.035,1.035,0,0,0,61.034,59.724ZM20.69,12.138a2.069,2.069,0,0,1,2.069-2.069H47.586a2.069,2.069,0,0,1,2.069,2.069V28.69a2.069,2.069,0,0,1-2.069,2.069H45.517a1.035,1.035,0,0,0-.828.414l-2.276,3.034-2.276-3.034a1.035,1.035,0,0,0-.828-.414H22.759A2.069,2.069,0,0,1,20.69,28.69ZM14.483,17.31a2.069,2.069,0,0,1,2.069-2.069h2.069V28.69a4.138,4.138,0,0,0,4.138,4.138H36.207v1.034a2.069,2.069,0,0,1-2.069,2.069H26.9a1.035,1.035,0,0,0-.828.414l-2.276,3.034-2.276-3.034a1.035,1.035,0,0,0-.828-.414H16.552a2.069,2.069,0,0,1-2.069-2.069ZM16.552,38h3.621l2.793,3.724a1.034,1.034,0,0,0,1.655,0L27.414,38h6.724a4.138,4.138,0,0,0,4.138-4.138V32.828h.517l2.793,3.724a1.034,1.034,0,0,0,1.655,0l2.793-3.724h1.552a4.138,4.138,0,0,0,4.138-4.138V24.552h2.069V53.517H49.655V52.483a5.172,5.172,0,0,0-2.282-4.288,4.138,4.138,0,1,0-5.852-.071l.071.071a5.172,5.172,0,0,0-2.282,4.288v1.034H22.759V52.483a5.172,5.172,0,0,0-2.282-4.288,4.138,4.138,0,1,0-5.852-.071l.071.071a5.172,5.172,0,0,0-2.282,4.288v1.034H8.276V24.552h4.138v9.31A4.138,4.138,0,0,0,16.552,38ZM44.483,49.379a3.1,3.1,0,0,1,3.1,3.1v1.034H41.379V52.483A3.1,3.1,0,0,1,44.483,49.379Zm-2.069-4.138a2.069,2.069,0,1,1,2.069,2.069A2.069,2.069,0,0,1,42.414,45.241ZM17.586,49.379a3.1,3.1,0,0,1,3.1,3.1v1.034H14.483V52.483A3.1,3.1,0,0,1,17.586,49.379Zm-2.069-4.138a2.069,2.069,0,1,1,2.069,2.069A2.069,2.069,0,0,1,15.517,45.241ZM4.138,22.483a2.069,2.069,0,0,1,2.069-2.069h6.207v2.069H7.241a1.035,1.035,0,0,0-1.034,1.034V54.552a1.035,1.035,0,0,0,1.034,1.034H54.828a1.035,1.035,0,0,0,1.034-1.034V23.517a1.035,1.035,0,0,0-1.034-1.034h-3.1V20.414h4.138a2.069,2.069,0,0,1,2.069,2.069V59.724H40.345a1.034,1.034,0,0,0-.731.3l-1.766,1.766H24.221l-1.766-1.766a1.034,1.034,0,0,0-.731-.3H4.138ZM60,63.862a2.069,2.069,0,0,1-2.069,2.069H4.138a2.069,2.069,0,0,1-2.069-2.069V61.793H21.3l1.766,1.766a1.034,1.034,0,0,0,.731.3H38.276a1.034,1.034,0,0,0,.731-.3l1.766-1.766H60Z"/>
    <path id="Path_325" data-name="Path 325" d="M232,48h16.552v2.069H232Z" transform="translate(-202 -34.828)"/>
    <path id="Path_326" data-name="Path 326" d="M184,80h22.759v2.069H184Z" transform="translate(-160.207 -62.69)"/>
    <path id="Path_327" data-name="Path 327" d="M184,112h22.759v2.069H184Z" transform="translate(-160.207 -90.552)"/>
    <path id="Path_328" data-name="Path 328" d="M184,144h18.621v2.069H184Z" transform="translate(-160.207 -118.414)"/>
    <path id="Path_329" data-name="Path 329" d="M200,48h2.069v2.069H200Z" transform="translate(-174.138 -34.828)"/>
  </g>
</svg>
