<svg id="_028-handshake" data-name="028-handshake" xmlns="http://www.w3.org/2000/svg" viewBox="0 0 60.034 60">
  <defs>
    <style>
      .cls-1 {
        fill: #8a4f3f;
      }

      .cls-2 {
        fill: #f2c09a;
      }

      .cls-3 {
        fill: #dedad8;
      }

      .cls-4 {
        fill: #0081b9;
      }

      .cls-5 {
        fill: #e9937c;
      }
    </style>
  </defs>
  <path id="Path_235" data-name="Path 235" class="cls-1" d="M128.627,221.493h4.039a2.02,2.02,0,1,0,0-4.039h4.039a2.02,2.02,0,0,0,0-4.039h4.039a2.02,2.02,0,1,0,0-4.039H123.578l-7.069-5.049-2.193,2.193a9.751,9.751,0,0,0-2.856,6.9l-2.02,2.02,12.118,12.118,2.02-2.02h5.049a2.02,2.02,0,0,0,0-4.04Z" transform="translate(-96.608 -180.384)"/>
  <path id="Path_236" data-name="Path 236" class="cls-2" d="M184.875,109.586l-2.02,2.02h-4.508a8.621,8.621,0,0,0-8.62,8.62v12.587a6.612,6.612,0,0,0,6.378-4.872l.6-2.2h17.26l1.01-2.02,2.02-2.02Z" transform="translate(-149.826 -96.754)"/>
  <rect id="Rectangle_276" data-name="Rectangle 276" class="cls-3" width="5.713" height="17.138" transform="translate(16.87 55.244) rotate(135)"/>
  <rect id="Rectangle_277" data-name="Rectangle 277" class="cls-4" width="11.425" height="22.85" transform="translate(26.97 49.186) rotate(135)"/>
  <rect id="Rectangle_278" data-name="Rectangle 278" class="cls-3" width="5.713" height="17.138" transform="translate(59.286 12.831) rotate(135)"/>
  <rect id="Rectangle_279" data-name="Rectangle 279" class="cls-4" width="11.425" height="22.85" transform="translate(57.266 18.89) rotate(135)"/>
  <path id="Path_237" data-name="Path 237" class="cls-5" d="M235.383,178.487h0a4.04,4.04,0,0,1-4.039,4.039h-1.01l-1.1,4.039h1.52l.592-2.02h0a6.059,6.059,0,0,0,6.059-6.059Z" transform="translate(-202.354 -157.576)"/>
  <path id="Path_238" data-name="Path 238" d="M58.606,12.23l-3.36,3.36L44.556,4.9l3.325-3.325L46.454.146,43.128,3.471,41.822,2.166a1.011,1.011,0,0,0-1.428,0l-8.079,8.079a1.011,1.011,0,0,0,0,1.428l1.306,1.306-1.01,1.01H28.52a9.63,9.63,0,0,0-9.629,9.629v.051l-1.9,1.9a10.689,10.689,0,0,0-3.144,7.182l-1.018,1.019-1.306-1.306a1.011,1.011,0,0,0-1.428,0L2.02,40.541a1.011,1.011,0,0,0,0,1.428l1.306,1.306L0,46.6l1.428,1.428L4.753,44.7l10.69,10.69-3.325,3.325,1.428,1.428,3.325-3.325,1.306,1.306a1.011,1.011,0,0,0,1.428,0l8.079-8.079a1.011,1.011,0,0,0,0-1.428l-1.306-1.306,1.01-1.01H32.02a3.029,3.029,0,0,0,3.03-3.03,3,3,0,0,0-.186-1.01h1.2a3.029,3.029,0,0,0,3.03-3.03,3,3,0,0,0-.186-1.01h1.2a3.029,3.029,0,0,0,3.03-3.03,3,3,0,0,0-.186-1.01h1.2a3.018,3.018,0,0,0,2.02-5.271V27.534l1.01-1.01,1.306,1.306a1.011,1.011,0,0,0,1.428,0l8.079-8.079a1.011,1.011,0,0,0,0-1.428l-1.306-1.306,3.36-3.359ZM18.891,55.984,4.162,41.254,10.812,34.6l14.73,14.73ZM44.138,32.166H36.059v2.02H40.1a1.01,1.01,0,1,1,0,2.02H32.02v2.02h4.039a1.01,1.01,0,0,1,0,2.02H28.99v2.02h3.03a1.01,1.01,0,0,1,0,2.02H26.97a1.007,1.007,0,0,0-.714.3l-1.306,1.306L14.26,35.2l1.306-1.306a1.007,1.007,0,0,0,.3-.714,8.685,8.685,0,0,1,2.56-6.181l.47-.47v9.681a1.01,1.01,0,0,0,1.01,1.01A7.634,7.634,0,0,0,27.253,31.6l.4-1.452H44.138a1.01,1.01,0,1,1,0,2.02Zm.3-5.763a1.007,1.007,0,0,0-.3.714v1.01H28.2l.551-2.02h.238a5.055,5.055,0,0,0,5.049-5.049H32.02a3.029,3.029,0,0,1-3.03,3.03H27.98a1.011,1.011,0,0,0-.975.744l-1.7,6.237a5.619,5.619,0,0,1-4.394,4.039V23.617a7.61,7.61,0,0,1,7.609-7.609h4.509a1.007,1.007,0,0,0,.714-.3l1.306-1.306L45.74,25.1Zm4.753-.714-14.73-14.73,6.651-6.651,14.73,14.73Z" transform="translate(0 -0.146)"/>
  <rect id="Rectangle_280" data-name="Rectangle 280" width="2.02" height="2.02" transform="translate(21.331 50.196) rotate(135)"/>
  <rect id="Rectangle_281" data-name="Rectangle 281" width="2.02" height="2.02" transform="translate(41.527 9.803) rotate(135)"/>
</svg>
