<svg id="_24-hours" data-name="24-hours" xmlns="http://www.w3.org/2000/svg" viewBox="0 0 60 60">
  <defs>
    <style>
      .cls-1 {
        fill: #0081b9;
      }

      .cls-2 {
        fill: #fd7239;
      }
    </style>
  </defs>
  <ellipse id="Ellipse_18" data-name="Ellipse 18" class="cls-1" cx="2.812" cy="2.812" rx="2.812" ry="2.812" transform="translate(27.187 27.187)"/>
  <path id="Path_302" data-name="Path 302" class="cls-2" d="M62.266,38.828A23.423,23.423,0,1,1,48.6,17.518L45.684,20.43H56.072V10.042L52.611,13.5A28.7,28.7,0,0,0,39.052,10a28.828,28.828,0,1,0,28.6,28.827Z" transform="translate(-8.828 -8.828)"/>
  <path id="Path_303" data-name="Path 303" d="M206.574,141.683a3.991,3.991,0,0,0-2.812-3.808V127.68a1.172,1.172,0,1,0-2.344,0v10.195a3.956,3.956,0,0,0-.691.288l-3.226-3.226a1.172,1.172,0,1,0-1.657,1.657l3.226,3.226a3.984,3.984,0,1,0,7.5,1.863Zm-3.984,1.641a1.641,1.641,0,1,1,1.641-1.641A1.642,1.642,0,0,1,202.589,143.323Z" transform="translate(-172.589 -111.683)"/>
  <path id="Path_304" data-name="Path 304" d="M323.638,144.326h-.4a3.168,3.168,0,0,0-3.164,3.164v1.992a1.172,1.172,0,0,0,1.172,1.172h4.383a1.172,1.172,0,0,0,0-2.344H322.42v-.82a.821.821,0,0,1,.82-.82h.4a3.164,3.164,0,0,0,0-6.328h-2.391a1.172,1.172,0,0,0,0,2.344h2.391a.82.82,0,0,1,0,1.641Z" transform="translate(-282.567 -123.896)"/>
  <path id="Path_305" data-name="Path 305" d="M389.952,138.524a1.172,1.172,0,1,0-2.344,0v4.383a1.172,1.172,0,0,0,1.172,1.172h3.211v2.765a1.172,1.172,0,0,0,2.344,0v-8.319a1.172,1.172,0,1,0-2.344,0v3.211h-2.039Z" transform="translate(-342.185 -121.256)"/>
  <path id="Path_306" data-name="Path 306" d="M457.163,141.288h-.219v-2.764a1.172,1.172,0,0,0-2.344,0v8.319a1.172,1.172,0,1,0,2.344,0v-3.211h.219a1.822,1.822,0,0,1,1.82,1.82v1.391a1.172,1.172,0,1,0,2.344,0v-1.391A4.168,4.168,0,0,0,457.163,141.288Z" transform="translate(-401.327 -121.256)"/>
  <path id="Path_307" data-name="Path 307" d="M246.782,412.33a1.172,1.172,0,1,0,.829.343A1.18,1.18,0,0,0,246.782,412.33Z" transform="translate(-216.828 -364.01)"/>
  <path id="Path_308" data-name="Path 308" d="M128.343,363.952a1.171,1.171,0,1,0,.829-.343A1.176,1.176,0,0,0,128.343,363.952Z" transform="translate(-113 -320.999)"/>
  <path id="Path_309" data-name="Path 309" d="M79.623,246.342a1.171,1.171,0,1,0,.829-.343A1.176,1.176,0,0,0,79.623,246.342Z" transform="translate(-69.989 -217.171)"/>
  <path id="Path_310" data-name="Path 310" d="M130,130.382a1.171,1.171,0,1,0-.829.343A1.184,1.184,0,0,0,130,130.382Z" transform="translate(-113 -113.336)"/>
  <path id="Path_311" data-name="Path 311" d="M246.782,82.014a1.172,1.172,0,1,0-.828-.343A1.179,1.179,0,0,0,246.782,82.014Z" transform="translate(-216.828 -70.334)"/>
  <path id="Path_312" data-name="Path 312" d="M364.4,365.954a1.17,1.17,0,1,0-.83-.343A1.18,1.18,0,0,0,364.4,365.954Z" transform="translate(-320.664 -320.999)"/>
  <path id="Path_313" data-name="Path 313" d="M58.828,28.828H53.437A1.172,1.172,0,0,0,52.266,30,22.243,22.243,0,1,1,37.7,9.1l-1.672,1.672a1.172,1.172,0,0,0,.829,2H47.243A1.172,1.172,0,0,0,48.415,11.6V1.213a1.172,1.172,0,0,0-2-.829l-2.85,2.85A30.072,30.072,0,0,0,30.233,0,29.66,29.66,0,0,0,12.38,5.794a1.172,1.172,0,0,0,1.385,1.891A27.3,27.3,0,0,1,30,2.344h.212A27.691,27.691,0,0,1,43.222,5.7a1.172,1.172,0,0,0,1.39-.2l1.46-1.46V10.43H39.685l.911-.911a1.172,1.172,0,0,0-.34-1.894A24.627,24.627,0,0,0,12.584,47.416a24.631,24.631,0,0,0,42-16.244h3.05A27.656,27.656,0,0,1,2.344,30,27.341,27.341,0,0,1,7.163,14.5a1.172,1.172,0,1,0-1.934-1.324A29.955,29.955,0,0,0,30,60,30,30,0,0,0,60,30,1.172,1.172,0,0,0,58.828,28.828Z" transform="translate(0 0)"/>
  <path id="Path_314" data-name="Path 314" d="M72.405,75.945a1.161,1.161,0,0,0,.838-.357l-.827-.83.829.829a1.172,1.172,0,0,0-1.657-1.657l-.024.025a1.174,1.174,0,0,0,.842,1.991Z" transform="translate(-62.886 -64.963)"/>
  <path id="Path_315" data-name="Path 315" d="M138.586,260.414a13.257,13.257,0,0,1-13.242-13.242,1.172,1.172,0,1,0-2.344,0,15.6,15.6,0,0,0,15.586,15.586,1.172,1.172,0,1,0,0-2.344Z" transform="translate(-108.586 -217.172)"/>
</svg>
